<svg width="20" height="20" viewBox="0 0 20 20" fill="none" xmlns="http://www.w3.org/2000/svg">
<path d="M2.88389 8.05548C1.80995 9.12942 1.80994 10.8706 2.88389 11.9446L8.05548 17.1162C9.12942 18.1901 10.8706 18.1901 11.9446 17.1162L17.1162 11.9446C18.1901 10.8706 18.1901 9.12942 17.1162 8.05548L11.9446 2.88389C10.8706 1.80995 9.12942 1.80994 8.05548 2.88389L2.88389 8.05548ZM10 16.4216V3.57843C10.3199 3.57843 10.6398 3.70047 10.8839 3.94455L16.0555 9.11614C16.5437 9.6043 16.5437 10.3958 16.0555 10.8839L10.8839 16.0555C10.6398 16.2996 10.3199 16.4216 10 16.4216Z" fill="#788BA5"/>
</svg>
