<svg width="20" height="20" viewBox="0 0 20 20" fill="none" xmlns="http://www.w3.org/2000/svg">
<path fill-rule="evenodd" clip-rule="evenodd" d="M5.5 14.5H4.75C3.23122 14.5 2 13.2688 2 11.75V4.75C2 3.23122 3.23122 2 4.75 2H11.75C13.2688 2 14.5 3.23122 14.5 4.75V5.5H15.25C16.7688 5.5 18 6.73122 18 8.25V15.25C18 16.7688 16.7688 18 15.25 18H8.25C6.73122 18 5.5 16.7688 5.5 15.25V14.5ZM3.5 4.75C3.5 4.05964 4.05964 3.5 4.75 3.5H11.75C12.4404 3.5 13 4.05964 13 4.75V5.5H8.25C6.73122 5.5 5.5 6.73122 5.5 8.25V13H4.75C4.05964 13 3.5 12.4404 3.5 11.75V4.75ZM7 8.25C7 7.55964 7.55964 7 8.25 7H15.25C15.9404 7 16.5 7.55964 16.5 8.25V15.25C16.5 15.9404 15.9404 16.5 15.25 16.5H8.25C7.55964 16.5 7 15.9404 7 15.25V8.25Z" fill="#788BA5"/>
</svg>
