<svg width="20" height="20" viewBox="0 0 20 20" fill="none" xmlns="http://www.w3.org/2000/svg">
<path fill-rule="evenodd" clip-rule="evenodd" d="M8.25 3.52374V5H11.75V3.52374C11.7365 3.51373 11.7078 3.5 11.6667 3.5H8.33333C8.29215 3.5 8.26351 3.51373 8.25 3.52374ZM13.25 5V3.5C13.25 3.07515 13.0618 2.68592 12.7576 2.4122C12.4561 2.14083 12.0626 2 11.6667 2H8.33333C7.93742 2 7.54388 2.14083 7.24235 2.4122C6.93822 2.68592 6.75 3.07515 6.75 3.5V5H3.75C3.33579 5 3 5.33579 3 5.75C3 6.16421 3.33579 6.5 3.75 6.5H4.02148L4.4158 15.3721C4.48112 16.842 5.69178 18 7.16308 18H12.8369C14.3082 18 15.5189 16.842 15.5842 15.3721L15.9785 6.5H16.25C16.6642 6.5 17 6.16421 17 5.75C17 5.33579 16.6642 5 16.25 5H13.25ZM5.52296 6.5L5.91432 15.3055C5.94401 15.9736 6.49431 16.5 7.16308 16.5H12.8369C13.5057 16.5 14.056 15.9736 14.0857 15.3055L14.477 6.5H5.52296ZM8.25 8.5C8.66421 8.5 9 8.83579 9 9.25V13.5C9 13.9142 8.66421 14.25 8.25 14.25C7.83579 14.25 7.5 13.9142 7.5 13.5V9.25C7.5 8.83579 7.83579 8.5 8.25 8.5ZM11.75 8.5C12.1642 8.5 12.5 8.83579 12.5 9.25V13.5C12.5 13.9142 12.1642 14.25 11.75 14.25C11.3358 14.25 11 13.9142 11 13.5V9.25C11 8.83579 11.3358 8.5 11.75 8.5Z" fill="#788BA5"/>
</svg>
