<svg width="20" height="20" viewBox="0 0 20 20" fill="none" xmlns="http://www.w3.org/2000/svg">
<path d="M10.5304 4.46967C10.3897 4.32902 10.1989 4.25 10 4.25C9.80111 4.25 9.61034 4.32902 9.46969 4.46967L6.46969 7.46967C6.25519 7.68417 6.19103 8.00676 6.30711 8.28701C6.4232 8.56727 6.69668 8.75 7.00002 8.75H13C13.3034 8.75 13.5768 8.56727 13.6929 8.28701C13.809 8.00676 13.7449 7.68417 13.5304 7.46967L10.5304 4.46967Z" fill="#788BA5"/>
<path d="M7.00002 11.25C6.69668 11.25 6.4232 11.4327 6.30711 11.713C6.19103 11.9932 6.25519 12.3158 6.46969 12.5303L9.46969 15.5303C9.76259 15.8232 10.2375 15.8232 10.5304 15.5303L13.5304 12.5303C13.7449 12.3158 13.809 11.9932 13.6929 11.713C13.5768 11.4327 13.3034 11.25 13 11.25H7.00002Z" fill="#788BA5"/>
</svg>
