<svg width="20" height="20" viewBox="0 0 20 20" fill="none" xmlns="http://www.w3.org/2000/svg">
<path d="M7.38624 11.97L8.34789 9.40561C8.44813 9.13828 8.60445 8.89552 8.80633 8.69364L14.2929 3.20708C14.6834 2.81655 15.3166 2.81655 15.7071 3.20708L16.7929 4.29286C17.1834 4.68339 17.1834 5.31655 16.7929 5.70708L11.3063 11.1936C11.1045 11.3955 10.8617 11.5518 10.5944 11.6521L8.02996 12.6137C7.62802 12.7645 7.23551 12.372 7.38624 11.97Z" fill="#788BA5"/>
<path d="M5.75 3.99997C4.23122 3.99997 3 5.23119 3 6.74997V14.25C3 15.7688 4.23122 17 5.75 17H13.25C14.7688 17 16 15.7688 16 14.25V12C16 11.5858 15.6642 11.25 15.25 11.25C14.8358 11.25 14.5 11.5858 14.5 12V14.25C14.5 14.9403 13.9404 15.5 13.25 15.5H5.75C5.05964 15.5 4.5 14.9403 4.5 14.25V6.74997C4.5 6.05961 5.05964 5.49997 5.75 5.49997H8C8.41421 5.49997 8.75 5.16418 8.75 4.74997C8.75 4.33576 8.41421 3.99997 8 3.99997H5.75Z" fill="#788BA5"/>
</svg>
