<svg width="20" height="20" viewBox="0 0 20 20" fill="none" xmlns="http://www.w3.org/2000/svg">
<path fill-rule="evenodd" clip-rule="evenodd" d="M2.25 5C2.25 4.0335 3.0335 3.25 4 3.25H7.58579C8.04992 3.25 8.49503 3.43437 8.82322 3.76256L10.2374 5.17678C10.2843 5.22366 10.3479 5.25 10.4142 5.25H16C16.9665 5.25 17.75 6.0335 17.75 7V15C17.75 15.9665 16.9665 16.75 16 16.75H4C3.0335 16.75 2.25 15.9665 2.25 15V5ZM4 4.75C3.86193 4.75 3.75 4.86193 3.75 5V15C3.75 15.1381 3.86193 15.25 4 15.25H16C16.1381 15.25 16.25 15.1381 16.25 15V7C16.25 6.86193 16.1381 6.75 16 6.75H10.4142C9.95009 6.75 9.50497 6.56563 9.17678 6.23744L7.76256 4.82322C7.71568 4.77634 7.65209 4.75 7.58579 4.75H4Z" fill="#788BA5"/>
</svg>
