<svg width="20" height="20" viewBox="0 0 20 20" fill="none" xmlns="http://www.w3.org/2000/svg">
<path fill-rule="evenodd" clip-rule="evenodd" d="M4 3.25C3.0335 3.25 2.25 4.0335 2.25 5V15C2.25 15.9665 3.0335 16.75 4 16.75C4.00365 16.75 4.0073 16.75 4.01095 16.75L16.6228 16.75C17.181 16.75 17.6714 16.3801 17.8248 15.8434L19.539 9.8434C19.7672 9.04488 19.1676 8.25 18.3371 8.25H17.75V7C17.75 6.0335 16.9665 5.25 16 5.25H10.4142C10.3479 5.25 10.2843 5.22366 10.2374 5.17678L8.82322 3.76256C8.49503 3.43437 8.04992 3.25 7.58579 3.25H4ZM16.25 8.25V7C16.25 6.86193 16.1381 6.75 16 6.75H10.4142C9.95009 6.75 9.50497 6.56563 9.17678 6.23744L7.76256 4.82322C7.71568 4.77634 7.65209 4.75 7.58579 4.75H4C3.86193 4.75 3.75 4.86193 3.75 5V15C3.75 15.1381 3.86193 15.25 4 15.25H4.00577C4.26043 15.2475 4.48349 15.0778 4.55358 14.8325L6.17525 9.1566C6.32857 8.61997 6.81905 8.25 7.37715 8.25H16.25ZM5.9943 15.25L16.4343 15.25L18.0057 9.75H7.56573L5.99586 15.2445C5.99534 15.2464 5.99482 15.2482 5.9943 15.25Z" fill="#788BA5"/>
</svg>
