<svg width="20" height="20" viewBox="0 0 20 20" fill="none" xmlns="http://www.w3.org/2000/svg">
<path fill-rule="evenodd" clip-rule="evenodd" d="M16.6023 16.5L11.2471 2.6396C11.0982 2.25415 10.7275 2 10.3143 2H8.7156C8.28768 2 7.90717 2.27229 7.76909 2.67733L3.05681 16.5H2.75C2.33579 16.5 2 16.8358 2 17.25C2 17.6642 2.33579 18 2.75 18H5.25C5.66421 18 6 17.6642 6 17.25C6 16.8358 5.66421 16.5 5.25 16.5H4.64158L5.74954 13.25H10.6922L11.9922 16.5H11.25C10.8358 16.5 10.5 16.8358 10.5 17.25C10.5 17.6642 10.8358 18 11.25 18H17.25C17.6642 18 18 17.6642 18 17.25C18 16.8358 17.6642 16.5 17.25 16.5H16.6023ZM6.2609 11.75H10.0922L8.02377 6.57892L6.2609 11.75ZM8.76712 4.39842L13.6078 16.5H14.9942L9.97148 3.5H9.0734L8.76712 4.39842Z" fill="#788BA5"/>
</svg>
