<svg width="20" height="20" viewBox="0 0 20 20" fill="none" xmlns="http://www.w3.org/2000/svg">
<path d="M10 1.66663C8.90569 1.66663 7.82206 1.88218 6.81101 2.30097C5.79997 2.71976 4.88131 3.33359 4.10749 4.10741C2.54468 5.67021 1.66671 7.78983 1.66671 9.99997C1.66671 13.6833 4.05838 16.8083 7.36671 17.9166C7.78338 17.9833 7.91671 17.725 7.91671 17.5V16.0916C5.60838 16.5916 5.11671 14.975 5.11671 14.975C4.73338 14.0083 4.19171 13.75 4.19171 13.75C3.43338 13.2333 4.25004 13.25 4.25004 13.25C5.08338 13.3083 5.52504 14.1083 5.52504 14.1083C6.25004 15.375 7.47504 15 7.95004 14.8C8.02504 14.2583 8.24171 13.8916 8.47504 13.6833C6.62504 13.475 4.68338 12.7583 4.68338 9.5833C4.68338 8.6583 5.00004 7.91663 5.54171 7.32497C5.45838 7.11663 5.16671 6.24997 5.62504 5.12497C5.62504 5.12497 6.32504 4.89997 7.91671 5.97497C8.57504 5.79163 9.29171 5.69997 10 5.69997C10.7084 5.69997 11.425 5.79163 12.0834 5.97497C13.675 4.89997 14.375 5.12497 14.375 5.12497C14.8334 6.24997 14.5417 7.11663 14.4584 7.32497C15 7.91663 15.3167 8.6583 15.3167 9.5833C15.3167 12.7666 13.3667 13.4666 11.5084 13.675C11.8084 13.9333 12.0834 14.4416 12.0834 15.2166V17.5C12.0834 17.725 12.2167 17.9916 12.6417 17.9166C15.95 16.8 18.3334 13.6833 18.3334 9.99997C18.3334 8.90562 18.1178 7.82198 17.699 6.81094C17.2803 5.79989 16.6664 4.88123 15.8926 4.10741C15.1188 3.33359 14.2001 2.71976 13.1891 2.30097C12.178 1.88218 11.0944 1.66663 10 1.66663Z" fill="#788BA5"/>
</svg>
