<svg width="20" height="20" viewBox="0 0 20 20" fill="none" xmlns="http://www.w3.org/2000/svg">
<path d="M10.1625 8.8565V11.6H14.7921C14.6039 12.778 13.3923 15.05 10.1625 15.05C7.37551 15.05 5.10225 12.7875 5.10225 10C5.10225 7.2125 7.37551 4.95 10.1625 4.95C11.747 4.95 12.8092 5.6125 13.4147 6.1845L15.6308 4.094C14.2085 2.788 12.3658 2 10.1625 2C5.65067 2 2 5.578 2 10C2 14.422 5.65067 18 10.1625 18C14.8717 18 18 14.753 18 10.1845C18 9.6595 17.9424 9.2595 17.8725 8.8595L10.1625 8.8565Z" fill="#788BA5"/>
</svg>
