<svg width="20" height="20" viewBox="0 0 20 20" fill="none" xmlns="http://www.w3.org/2000/svg">
<path fill-rule="evenodd" clip-rule="evenodd" d="M4 8.88657L3.25067 9.55839C2.94225 9.83489 2.46809 9.80903 2.19158 9.50062C1.91507 9.19221 1.94094 8.71804 2.24935 8.44153L8.8318 2.54002C9.49658 1.94402 10.5034 1.94402 11.1682 2.54002L17.7507 8.44153C18.0591 8.71804 18.0849 9.19221 17.8084 9.50062C17.5319 9.80903 17.0578 9.83489 16.7493 9.55839L16 8.88656V15.7499C16 16.9926 14.9926 17.9999 13.75 17.9999H6.25C5.00869 17.9999 4 16.9959 4 15.752V8.88657ZM9.83312 3.65688C9.92809 3.57173 10.0719 3.57173 10.1669 3.65688L14.5 7.54173V15.7499C14.5 16.1642 14.1642 16.4999 13.75 16.4999H12.25V12.4999C12.25 11.3954 11.3546 10.4999 10.25 10.4999H9.75C8.64543 10.4999 7.75 11.3954 7.75 12.4999V16.4999H6.25C5.83446 16.4999 5.5 16.1649 5.5 15.752V7.54174L9.83312 3.65688Z" fill="#788BA5"/>
</svg>
