<svg width="20" height="20" viewBox="0 0 20 20" fill="none" xmlns="http://www.w3.org/2000/svg">
<path d="M7 9C8.10457 9 9 8.10457 9 7C9 5.89543 8.10457 5 7 5C5.89543 5 5 5.89543 5 7C5 8.10457 5.89543 9 7 9Z" fill="#788BA5"/>
<path fill-rule="evenodd" clip-rule="evenodd" d="M4 2C2.89543 2 2 2.89543 2 4V16C2 17.1046 2.89543 18 4 18H16C17.1046 18 18 17.1046 18 16V4C18 2.89543 17.1046 2 16 2H4ZM16 3.5H4C3.72386 3.5 3.5 3.72386 3.5 4V12.1667L4.85142 11.2657C5.54279 10.8048 6.44714 10.8194 7.1233 11.3024L8.76854 12.4775C9.18451 12.7746 9.75758 12.7102 10.0972 12.3282L12.3056 9.84368C12.9848 9.07956 14.131 8.95071 14.9629 9.54494L16.5 10.6429V4C16.5 3.72386 16.2761 3.5 16 3.5Z" fill="#788BA5"/>
</svg>
