<svg width="20" height="20" viewBox="0 0 20 20" fill="none" xmlns="http://www.w3.org/2000/svg">
<path fill-rule="evenodd" clip-rule="evenodd" d="M9.82322 4.16637C11.4829 2.50664 14.1739 2.50664 15.8336 4.16637C17.4934 5.82609 17.4934 8.51705 15.8336 10.1768L14.2426 11.7678C12.5829 13.4275 9.89196 13.4275 8.23223 11.7678L8.05545 11.591C7.76256 11.2981 7.76256 10.8232 8.05545 10.5303C8.34835 10.2374 8.82322 10.2374 9.11611 10.5303L9.29289 10.7071C10.3668 11.781 12.108 11.781 13.182 10.7071L14.773 9.11611C15.8469 8.04217 15.8469 6.30097 14.773 5.22703C13.699 4.15308 11.9578 4.15308 10.8839 5.22703L10.7071 5.4038C10.4142 5.6967 9.93934 5.6967 9.64644 5.4038C9.35355 5.11091 9.35355 4.63604 9.64644 4.34314L9.82322 4.16637ZM5.75736 8.23223C7.41708 6.5725 10.108 6.5725 11.7678 8.23223L11.9445 8.40901C12.2374 8.7019 12.2374 9.17677 11.9445 9.46967C11.6516 9.76256 11.1768 9.76256 10.8839 9.46967L10.7071 9.29289C9.63316 8.21895 7.89196 8.21895 6.81802 9.29289L5.22703 10.8839C4.15308 11.9578 4.15308 13.699 5.22703 14.773C6.30097 15.8469 8.04217 15.8469 9.11611 14.773L9.29289 14.5962C9.58578 14.3033 10.0607 14.3033 10.3536 14.5962C10.6464 14.8891 10.6464 15.364 10.3536 15.6569L10.1768 15.8336C8.51705 17.4934 5.82609 17.4934 4.16637 15.8336C2.50664 14.1739 2.50664 11.4829 4.16637 9.82322L5.75736 8.23223Z" fill="#788BA5"/>
</svg>
