<svg width="20" height="20" viewBox="0 0 20 20" fill="none" xmlns="http://www.w3.org/2000/svg">
<path d="M9.77067 5.03223C9.99934 5.01209 10.1175 5.29916 9.97197 5.47667C9.48863 6.06614 9.17715 6.77372 9.07671 7.52618C8.94771 8.4925 9.17489 9.47175 9.71876 10.2937C10.2626 11.1156 11.0888 11.7283 12.0536 12.0252C12.8268 12.2631 13.6498 12.2862 14.4295 12.0979C14.6453 12.0457 14.8419 12.2607 14.7298 12.4523C14.3717 13.0642 13.8825 13.5987 13.2919 14.019C12.5354 14.5574 11.6411 14.8883 10.7044 14.9763C9.76765 15.0642 8.82367 14.906 7.97312 14.5185C7.12257 14.131 6.39736 13.5287 5.87484 12.7758C5.35232 12.023 5.05209 11.1479 5.00619 10.2438C4.96028 9.33976 5.17042 8.44067 5.61418 7.64246C6.05794 6.84424 6.71869 6.17685 7.52593 5.71147C8.22946 5.30588 8.98446 5.10147 9.77067 5.03223Z" fill="#788BA5"/>
</svg>
