<svg width="20" height="20" viewBox="0 0 20 20" fill="none" xmlns="http://www.w3.org/2000/svg">
<path d="M11 6.5H9V5H11V6.5Z" fill="#788BA5"/>
<path d="M13 6.5H15V5H13V6.5Z" fill="#788BA5"/>
<path d="M13 9.5H15V8H13V9.5Z" fill="#788BA5"/>
<path d="M15 12.5H13V11H15V12.5Z" fill="#788BA5"/>
<path d="M15 15.5H13V14H15V15.5Z" fill="#788BA5"/>
<path fill-rule="evenodd" clip-rule="evenodd" d="M6 4V9H4C2.89543 9 2 9.89543 2 11V18H18V4C18 2.89543 17.1046 2 16 2H8C6.89543 2 6 2.89543 6 4ZM16 3.5H8C7.72386 3.5 7.5 3.72386 7.5 4V9H9V8H11V9.26756C11.5978 9.61337 12 10.2597 12 11V16.5H16.5V4C16.5 3.72386 16.2761 3.5 16 3.5ZM6 12.5H4V11H6V12.5ZM8 11V12.5H10V11H8ZM8 15.5V14H10V15.5H8ZM4 15.5H6V14H4V15.5Z" fill="#788BA5"/>
</svg>
