<svg width="20" height="20" viewBox="0 0 20 20" fill="none" xmlns="http://www.w3.org/2000/svg">
<path d="M14.4573 2.15557C14.129 1.90302 13.6581 1.96444 13.4055 2.29275C13.153 2.62107 13.2144 3.09195 13.5427 3.34451L15.0449 4.50004H5.75C4.23122 4.50004 3 5.73125 3 7.25004V9.75004C3 10.1643 3.33579 10.5 3.75 10.5C4.16421 10.5 4.5 10.1643 4.5 9.75004V7.25004C4.5 6.55968 5.05964 6.00004 5.75 6.00004H15.0449L13.5427 7.15557C13.2144 7.40812 13.153 7.879 13.4055 8.20732C13.6581 8.53564 14.129 8.59706 14.4573 8.34451L17.7073 5.84451C17.8918 5.70253 18 5.48289 18 5.25004C18 5.01719 17.8918 4.79754 17.7073 4.65557L14.4573 2.15557Z" fill="#788BA5"/>
<path d="M5.54272 17.8446C5.87103 18.0971 6.34192 18.0357 6.59447 17.7074C6.84702 17.3791 6.7856 16.9082 6.45728 16.6556L4.95509 15.5001H14.25C15.7688 15.5001 17 14.2689 17 12.7501V10.2501C17 9.83587 16.6642 9.50008 16.25 9.50008C15.8358 9.50008 15.5 9.83587 15.5 10.2501V12.7501C15.5 13.4404 14.9404 14.0001 14.25 14.0001H4.95509L6.45728 12.8446C6.7856 12.592 6.84702 12.1211 6.59447 11.7928C6.34192 11.4645 5.87103 11.4031 5.54272 11.6556L2.29272 14.1556C2.10815 14.2976 2 14.5172 2 14.7501C2 14.9829 2.10815 15.2026 2.29272 15.3446L5.54272 17.8446Z" fill="#788BA5"/>
</svg>
