<svg width="20" height="20" viewBox="0 0 20 20" fill="none" xmlns="http://www.w3.org/2000/svg">
<path fill-rule="evenodd" clip-rule="evenodd" d="M11.7483 3.147L18.3493 15.0287C19.0899 16.3618 18.1259 18 16.601 18H3.39903C1.87406 18 0.910121 16.3618 1.65071 15.0287L8.25168 3.147C9.01369 1.77538 10.9863 1.77538 11.7483 3.147ZM10 7.00003C10.5523 7.00003 11 7.44775 11 8.00003V11C11 11.5523 10.5523 12 10 12C9.44771 12 9 11.5523 9 11V8.00003C9 7.44775 9.44771 7.00003 10 7.00003ZM11.25 14.75C11.25 15.4404 10.6904 16 10 16C9.30964 16 8.75 15.4404 8.75 14.75C8.75 14.0597 9.30964 13.5 10 13.5C10.6904 13.5 11.25 14.0597 11.25 14.75Z" fill="#788BA5"/>
</svg>
