<svg width="20" height="20" viewBox="0 0 20 20" fill="none" xmlns="http://www.w3.org/2000/svg">
<path fill-rule="evenodd" clip-rule="evenodd" d="M9 5.5C9 7.433 7.433 9 5.5 9C3.567 9 2 7.433 2 5.5C2 3.567 3.567 2 5.5 2C7.433 2 9 3.567 9 5.5ZM7.5 5.5C7.5 6.60457 6.60457 7.5 5.5 7.5C4.39543 7.5 3.5 6.60457 3.5 5.5C3.5 4.39543 4.39543 3.5 5.5 3.5C6.60457 3.5 7.5 4.39543 7.5 5.5Z" fill="#788BA5"/>
<path fill-rule="evenodd" clip-rule="evenodd" d="M13.3784 2.54947C13.7607 1.86982 14.7393 1.86982 15.1216 2.54947L17.9117 7.50974C18.2867 8.17635 17.805 9 17.0401 9H11.4598C10.695 9 10.2133 8.17635 10.5883 7.50974L13.3784 2.54947ZM12.3148 7.5L14.25 4.0596L16.1852 7.5H12.3148Z" fill="#788BA5"/>
<path fill-rule="evenodd" clip-rule="evenodd" d="M13 11C11.8954 11 11 11.8954 11 13V16C11 17.1046 11.8954 18 13 18H16C17.1046 18 18 17.1046 18 16V13C18 11.8954 17.1046 11 16 11H13ZM16 12.5H13C12.7239 12.5 12.5 12.7239 12.5 13V16C12.5 16.2761 12.7239 16.5 13 16.5H16C16.2761 16.5 16.5 16.2761 16.5 16V13C16.5 12.7239 16.2761 12.5 16 12.5Z" fill="#788BA5"/>
<path d="M3.53033 11.4697C3.23744 11.1768 2.76256 11.1768 2.46967 11.4697C2.17678 11.7626 2.17678 12.2374 2.46967 12.5303L4.43934 14.5L2.46967 16.4697C2.17678 16.7626 2.17678 17.2374 2.46967 17.5303C2.76256 17.8232 3.23744 17.8232 3.53033 17.5303L5.5 15.5607L7.46967 17.5303C7.76256 17.8232 8.23744 17.8232 8.53033 17.5303C8.82322 17.2374 8.82322 16.7626 8.53033 16.4697L6.56066 14.5L8.53033 12.5303C8.82322 12.2374 8.82322 11.7626 8.53033 11.4697C8.23744 11.1768 7.76256 11.1768 7.46967 11.4697L5.5 13.4393L3.53033 11.4697Z" fill="#788BA5"/>
</svg>
